<?xml version="1.0" encoding="utf-8"?>
<!-- Generator: Adobe Illustrator 26.3.1, SVG Export Plug-In . SVG Version: 6.00 Build 0)  -->
<svg xmlns="http://www.w3.org/2000/svg" class="icon icon-tabler icon-tabler-brand-instagram" width="24" height="24" viewBox="0 0 24 24" stroke-width="2" stroke="currentColor" fill="none" stroke-linecap="round" stroke-linejoin="round">
<path class="st0" d="M12,1C9,1,8.7,1,7.5,1.1c-1.2,0.1-2,0.2-2.7,0.5C4.1,1.9,3.5,2.3,2.9,2.9s-1,1.2-1.3,1.9
	C1.3,5.5,1.1,6.3,1.1,7.5C1,8.7,1,9,1,12s0,3.4,0.1,4.5c0.1,1.2,0.2,2,0.5,2.7c0.3,0.7,0.7,1.3,1.3,1.9c0.6,0.6,1.2,1,1.9,1.3
	c0.7,0.3,1.5,0.5,2.7,0.5C8.7,23,9,23,12,23s3.4,0,4.5-0.1c1.2-0.1,2-0.2,2.7-0.5c0.7-0.3,1.3-0.7,1.9-1.3c0.6-0.6,1-1.2,1.3-1.9
	c0.3-0.7,0.5-1.5,0.5-2.7C23,15.4,23,15,23,12s0-3.4-0.1-4.5c-0.1-1.2-0.2-2-0.5-2.7c-0.3-0.7-0.7-1.3-1.3-1.9
	c-0.6-0.6-1.2-1-1.9-1.3c-0.7-0.3-1.5-0.5-2.7-0.5C15.4,1,15,1,12,1L12,1z"/>
<path class="st0" d="M12,6.4c-3.1,0-5.7,2.5-5.7,5.7c0,3.1,2.5,5.7,5.7,5.7c3.1,0,5.7-2.5,5.7-5.7C17.7,8.9,15.1,6.4,12,6.4L12,6.4z
	"/>
<path class="st1" d="M19.2,5.7c0,0.5-0.4,0.9-0.9,0.9c-0.5,0-0.9-0.4-0.9-0.9c0-0.5,0.4-0.9,0.9-0.9C18.8,4.8,19.2,5.2,19.2,5.7
	L19.2,5.7z"/>
</svg>
