<?xml version="1.0" encoding="utf-8"?>
<!-- Generator: Adobe Illustrator 26.3.1, SVG Export Plug-In . SVG Version: 6.00 Build 0)  -->
<svg xmlns="http://www.w3.org/2000/svg" class="icon icon-tabler icon-tabler-brand-github" width="37" height="37" viewBox="0 0 37 37" stroke-width="2" stroke="currentColor" fill="none" stroke-linecap="round" stroke-linejoin="round">
<path class="st0" d="M33.3,1H3.5C2.1,1,1,2.1,1,3.6v29.8c0,1.4,1.1,2.5,2.4,2.5h29.8c1.4,0,2.4-1.1,2.4-2.5V3.6
	C35.8,2.2,34.7,1,33.3,1z M11.5,30.9H6.3V14.3h5.2V30.9L11.5,30.9z M9,12c-1.7,0-3-1.4-3-3s1.4-3,3-3c1.7,0,3,1.4,3,3
	C11.9,10.6,10.6,12,9,12z M30.8,30.9h-5.2v-8c0-2,0-4.4-2.6-4.4s-3.1,2.1-3.1,4.3V31h-5.2V14.4h5v2.3h0.1c0.7-1.3,2.3-2.6,4.9-2.6
	c5.2,0,6.2,3.4,6.2,7.9L30.8,30.9L30.8,30.9z"/>
</svg>
