<?xml version="1.0" encoding="utf-8"?>
<!-- Generator: Adobe Illustrator 26.3.1, SVG Export Plug-In . SVG Version: 6.00 Build 0)  -->
<svg version="1.1" xmlns="http://www.w3.org/2000/svg" xmlns:xlink="http://www.w3.org/1999/xlink" x="0px" y="0px"
	 viewBox="0 0 448 512" style="enable-background:new 0 0 448 512;" xml:space="preserve">
<style type="text/css">
	.st0{fill:#FFFFFF;stroke:#000000;stroke-width:2;stroke-miterlimit:10;}
</style>
<g id="Layer_1" focusable="false">
	<path class="st0" d="M248.5,251.6H218c-1.4,0-2.5,1.1-2.5,2.6v30.4c0,1.4,1.1,2.6,2.5,2.6h30.5c1.4,0,2.5-1.1,2.5-2.6v-30.4
		C251,252.8,249.9,251.6,248.5,251.6z M226.2,282.1h-5.3v-17h5.3L226.2,282.1L226.2,282.1z M223.6,262.8c-1.7,0-3.1-1.4-3.1-3.1
		s1.4-3.1,3.1-3.1c1.7,0,3.1,1.4,3.1,3.1C226.6,261.4,225.3,262.8,223.6,262.8z M245.9,282.1h-5.3v-8.2c0-2,0-4.5-2.7-4.5
		c-2.7,0-3.2,2.1-3.2,4.4v8.4h-5.3v-17h5.1v2.3h0.1c0.7-1.3,2.4-2.7,5-2.7c5.3,0,6.3,3.5,6.3,8.1V282.1z"/>
</g>
<g id="Layer_2">
</g>
</svg>
