<?xml version="1.0" encoding="utf-8"?>
<svg width="24px" height="24px" viewBox="0 0 24 24" version="1.1" xmlns:xlink="http://www.w3.org/1999/xlink" xmlns="http://www.w3.org/2000/svg">
  <g id="brand-instagram">
    <path d="M12 0C8.74 0 8.333 0.015 7.053 0.072C5.775 0.132 4.905 0.333 4.14 0.63C3.351 0.936 2.681 1.347 2.014 2.014C1.347 2.681 0.935 3.35 0.63 4.14C0.333 4.905 0.131 5.775 0.072 7.053C0.012 8.333 0 8.74 0 12C0 15.26 0.015 15.667 0.072 16.947C0.132 18.224 0.333 19.095 0.63 19.86C0.936 20.648 1.347 21.319 2.014 21.986C2.681 22.652 3.35 23.065 4.14 23.37C4.906 23.666 5.776 23.869 7.053 23.928C8.333 23.988 8.74 24 12 24C15.26 24 15.667 23.985 16.947 23.928C18.224 23.868 19.095 23.666 19.86 23.37C20.648 23.064 21.319 22.652 21.986 21.986C22.652 21.319 23.065 20.651 23.37 19.86C23.666 19.095 23.869 18.224 23.928 16.947C23.988 15.667 24 15.26 24 12C24 8.74 23.985 8.333 23.928 7.053C23.868 5.776 23.666 4.904 23.37 4.14C23.064 3.351 22.652 2.681 21.986 2.014C21.319 1.347 20.651 0.935 19.86 0.63C19.095 0.333 18.224 0.131 16.947 0.072C15.667 0.012 15.26 0 12 0L12 0ZM12.0024 1.16304C15.5302 1.16304 15.9509 1.18067 17.3442 1.24125C18.6328 1.30183 19.3322 1.51552 19.797 1.69836C20.416 1.93739 20.8544 2.22377 21.3192 2.68529C21.7807 3.14791 22.067 3.58741 22.306 4.20644C22.4867 4.67126 22.7025 5.3707 22.7609 6.65944C22.8237 8.05391 22.838 8.47248 22.838 12.0016C22.838 15.5308 22.8215 15.9504 22.7565 17.3438C22.6893 18.6325 22.4745 19.332 22.2928 19.7968C22.0461 20.4158 21.7652 20.8542 21.3026 21.3191C20.8412 21.7806 20.3951 22.067 19.7827 22.306C19.3201 22.4866 18.6097 22.7025 17.3211 22.7609C15.9179 22.8237 15.5048 22.838 11.9693 22.838C8.43273 22.838 8.0197 22.8215 6.61762 22.7565C5.32787 22.6893 4.61747 22.4745 4.15488 22.2928C3.52818 22.046 3.09753 21.7652 2.63604 21.3025C2.17235 20.841 1.87607 20.3949 1.64478 19.7825C1.46304 19.3199 1.24937 18.6094 1.18219 17.3207C1.13262 15.9328 1.115 15.5043 1.115 11.9851C1.115 8.46477 1.13262 8.03519 1.18219 6.6308C1.24937 5.34207 1.46304 4.63271 1.64478 4.17009C1.87607 3.54224 2.17235 3.11267 2.63604 2.64894C3.09753 2.18742 3.52818 1.89002 4.15488 1.65981C4.61747 1.47697 5.31245 1.26218 6.60109 1.19609C8.00539 1.14652 8.41841 1.13 11.9528 1.13L12.0024 1.16304L12.0024 1.16304L12.0024 1.16304ZM12 5.838C8.595 5.838 5.838 8.598 5.838 12C5.838 15.405 8.598 18.162 12 18.162C15.405 18.162 18.162 15.402 18.162 12C18.162 8.595 15.402 5.838 12 5.838L12 5.838ZM12 17C9.2375 17 7 14.7625 7 12C7 9.2375 9.2375 7 12 7C14.7625 7 17 9.2375 17 12C17 14.7625 14.7625 17 12 17L12 17ZM19.846 5.09517C19.846 5.61404 19.4243 6.035 18.906 6.035C18.387 6.035 17.966 5.61338 17.966 5.09517C17.966 4.57696 18.3877 4.156 18.906 4.156C19.4237 4.15535 19.846 4.57696 19.846 5.09517L19.846 5.09517Z" id="Shape" fill="#FFFFFF" fill-rule="evenodd" stroke="none" />
  </g>
</svg>